<svg width="140" height="140" viewBox="0 0 140 140" fill="none" xmlns="http://www.w3.org/2000/svg">
<g clip-path="url(#clip0_187_390)">
<path fill-rule="evenodd" clip-rule="evenodd" d="M70.8501 2.97056L100.31 19.9762C101.207 20.4939 101.72 21.382 101.72 22.4189V56.4301C101.72 57.4656 101.207 58.3537 100.31 58.8714L70.8501 75.877C69.9532 76.3947 68.9265 76.3947 68.0297 75.877L38.5684 58.8714C37.6715 58.3537 37.1582 57.4656 37.1582 56.4301V22.4174C37.1582 21.382 37.6715 20.4939 38.5684 19.9762L68.0297 2.97056C68.9265 2.45285 69.9532 2.45285 70.8501 2.97056Z" fill="#F2D1A5"/>
<path fill-rule="evenodd" clip-rule="evenodd" d="M70.8503 2.97056L100.31 19.9762C100.759 20.2343 101.111 20.5858 101.351 21.0028L69.4401 39.4245L37.5273 21.0028C37.768 20.5858 38.1209 20.2343 38.5686 19.9762L68.0298 2.97056C68.9267 2.45285 69.9534 2.45285 70.8503 2.97056Z" fill="#E3A76F"/>
<path fill-rule="evenodd" clip-rule="evenodd" d="M101.352 21.0029C101.592 21.42 101.722 21.8998 101.722 22.4175V56.4288C101.722 57.4642 101.207 58.3538 100.31 58.8715L70.8506 75.8771C70.4029 76.1367 69.9217 76.265 69.4404 76.265V39.4246L101.352 21.0029Z" fill="#ECBA78"/>
<path fill-rule="evenodd" clip-rule="evenodd" d="M48.6191 27.4051L57.9802 32.8097L90.2604 14.1751L80.8993 8.77197L48.6191 27.4051Z" fill="#C48958"/>
<path fill-rule="evenodd" clip-rule="evenodd" d="M55.8641 46.2627L50.0293 42.894C49.1325 42.3763 48.6191 41.4882 48.6191 40.4527V27.405L57.9802 32.8082V45.0421C57.9802 45.5598 57.7235 46.0032 57.2743 46.2627C56.8266 46.5223 56.3133 46.5209 55.8641 46.2627Z" fill="#E3A76F"/>
<path fill-rule="evenodd" clip-rule="evenodd" d="M82.6088 129.245L82.5694 102.807C82.5621 97.8439 83.2169 93.1816 86.9036 89.8596C91.0131 86.1568 98.4827 80.5481 104.233 73.7508C106.773 71.4612 110.607 71.3344 113.025 73.7508C115.443 76.1687 115.522 79.4368 113.027 82.5416L114.982 80.1354C117.224 77.3762 118.42 74.3443 118.406 70.7889L118.309 45.3366C118.234 25.5529 132.759 31.0362 132.948 37.7096L134.276 84.5644C134.397 88.8737 132.845 92.6158 129.796 95.6652L108.599 116.858V129.239C108.599 131.619 106.657 133.56 104.275 133.56H86.9327C84.5542 133.56 82.6131 131.622 82.6088 129.245Z" fill="#F6DCCD"/>
<path fill-rule="evenodd" clip-rule="evenodd" d="M113.952 74.8884C115.408 77.1416 115.15 79.9007 113.025 82.5418C109.568 86.0213 106.085 89.482 102.616 92.9499C101.687 93.8788 100.18 93.8788 99.2515 92.9499C98.3211 92.0209 98.3211 90.5145 99.2515 89.5855L113.952 74.8884Z" fill="#F1CBBC"/>
<path fill-rule="evenodd" clip-rule="evenodd" d="M82.6088 129.245L82.5694 102.807C82.5621 97.8439 83.2169 93.1816 86.9036 89.8595C89.1013 87.8791 92.2629 85.3518 95.6069 82.3899V133.56H86.9327C84.5542 133.56 82.6131 131.622 82.6088 129.245Z" fill="#F1CBBC"/>
<path fill-rule="evenodd" clip-rule="evenodd" d="M78.2274 123.648L115.068 123.964C116.848 123.979 118.294 125.449 118.278 127.229L118.218 134.32C118.202 136.102 116.732 137.546 114.951 137.531L78.1108 137.214C76.3287 137.198 74.8849 135.728 74.8995 133.948L74.9608 126.857C74.9754 125.077 76.4454 123.632 78.2274 123.648Z" fill="#D1D1D6"/>
<path fill-rule="evenodd" clip-rule="evenodd" d="M102.077 126.397L108.597 126.452L115.046 126.507C116.824 126.522 118.266 127.986 118.256 129.762L118.278 127.229C118.294 125.449 116.849 123.979 115.066 123.964L108.597 123.907L95.6064 123.796L82.5996 123.684L78.226 123.648C76.6831 123.633 75.375 124.717 75.041 126.163L82.6141 126.229L95.605 126.34L102.074 126.395L102.077 126.397Z" fill="#B1B1B5"/>
<path fill-rule="evenodd" clip-rule="evenodd" d="M55.7414 129.245L55.7823 102.807C55.7895 97.8439 55.1348 93.1816 51.4481 89.8596C47.34 86.1568 39.8689 80.5481 34.1187 73.7508C31.5798 71.4612 27.7443 71.3344 25.3264 73.7508C22.9085 76.1687 22.8298 79.4368 25.3264 82.5416L23.3693 80.1354C21.1279 77.3762 19.9335 74.3443 19.9466 70.7889L20.0429 45.3366C20.1173 25.5529 5.59371 31.0362 5.40413 37.7096L4.07704 84.5644C3.95454 88.8737 5.50621 92.6158 8.55704 95.6652L29.7539 116.858V129.239C29.7539 131.619 31.6964 133.56 34.0764 133.56H51.4204C53.7989 133.56 55.7385 131.622 55.7414 129.245Z" fill="#F6DCCD"/>
<path fill-rule="evenodd" clip-rule="evenodd" d="M24.4013 74.8884C22.9444 77.1416 23.2025 79.9007 25.3273 82.5418C28.785 86.0213 32.2675 89.482 35.7369 92.9499C36.6659 93.8788 38.1723 93.8788 39.1013 92.9499C40.0317 92.0209 40.0317 90.5145 39.1013 89.5855L24.4013 74.8884Z" fill="#F1CBBC"/>
<path fill-rule="evenodd" clip-rule="evenodd" d="M55.7418 129.245L55.7826 102.807C55.7899 97.8439 55.1337 93.1816 51.4485 89.8595C49.2493 87.8791 46.0891 85.3518 42.7451 82.3899V133.56H51.4193C53.7993 133.56 55.7389 131.622 55.7418 129.245Z" fill="#F1CBBC"/>
<path fill-rule="evenodd" clip-rule="evenodd" d="M60.1246 123.648L23.2841 123.964C21.5035 123.979 20.0583 125.449 20.0744 127.229L20.1341 134.32C20.1502 136.102 21.6202 137.546 23.4008 137.531L60.2412 137.214C62.0233 137.198 63.4685 135.728 63.4525 133.948L63.3912 126.857C63.3766 125.077 61.9066 123.632 60.1246 123.648Z" fill="#D1D1D6"/>
<path fill-rule="evenodd" clip-rule="evenodd" d="M36.2745 126.397L29.7543 126.452L23.3055 126.507C21.5278 126.522 20.0855 127.986 20.0943 129.762L20.0724 127.229C20.0578 125.449 21.503 123.979 23.2836 123.964L29.7543 123.907L42.7451 123.796L55.7505 123.684L60.124 123.648C61.667 123.633 62.9765 124.717 63.309 126.163L55.7374 126.229L42.7451 126.34L36.2759 126.395L36.2745 126.397Z" fill="#B1B1B5"/>
<path fill-rule="evenodd" clip-rule="evenodd" d="M71.6902 72.9998V40.9398L99.4627 24.9127V56.9683L71.6902 72.9998ZM39.4172 24.9127L46.3604 28.9217V42.2931C46.3604 43.0996 46.7847 43.8448 47.4891 44.2488L56.8472 49.6519C57.1929 49.8517 57.591 49.9523 57.976 49.9523C58.361 49.9523 58.7591 49.8517 59.1047 49.6519C59.8077 49.2479 60.2335 48.5056 60.2335 47.6977V36.9294L67.1766 40.9398V72.9984L39.4172 56.9683V24.9127ZM69.4341 4.97585L41.6747 21.0044L48.6179 25.0133L76.3904 8.98626L69.4341 4.97585ZM53.1314 27.6194L57.976 30.4179L85.7485 14.3894L80.9039 11.5894L53.1314 27.6194ZM50.8739 31.5263V40.9908L55.72 43.7879V34.3263L50.8739 31.5263ZM69.4341 37.03L97.2052 21.0044L90.262 16.994L62.4895 33.024L69.4341 37.03ZM103.976 58.2706V21.0044C103.976 20.1965 103.552 19.4513 102.847 19.0488L70.5614 0.41418C69.8716 0.0116797 69.0083 0.0116797 68.3054 0.41418L36.0324 19.0488C35.3295 19.4513 34.9037 20.1965 34.9037 21.0029V58.2706C34.9037 59.0786 35.3281 59.8209 36.0324 60.2248L68.3054 78.8594C68.6641 79.0592 69.0491 79.1598 69.4341 79.1598C69.8322 79.1598 70.2172 79.0592 70.5614 78.8594L102.847 60.2248C103.552 59.8209 103.976 59.0786 103.976 58.2706ZM59.2243 129.72C59.6764 130.871 59.1179 132.176 57.9629 132.634C56.8225 133.09 55.507 132.529 55.0564 131.378C54.6043 130.228 55.1629 128.924 56.3033 128.465C57.4583 128.008 58.7737 128.573 59.2243 129.72ZM61.4147 134.854C61.5343 134.738 61.721 134.488 61.721 134.117L61.6539 126.903C61.6539 126.534 61.4541 126.289 61.3491 126.175C61.2295 126.06 60.9904 125.87 60.6185 125.875L23.1291 126.195C22.7572 126.198 22.5049 126.394 22.3985 126.509C22.2789 126.624 22.0922 126.875 22.0922 127.244L22.1593 134.46C22.1593 134.829 22.3577 135.074 22.4641 135.188C22.5837 135.303 22.836 135.491 23.2079 135.488L60.6841 135.167C61.056 135.164 61.3083 134.969 61.4147 134.854ZM31.2797 115.114C31.7041 115.538 31.9433 116.11 31.9433 116.708V121.608L53.8883 121.416L53.9145 102.406C53.9277 98.159 53.4902 93.8234 50.2497 90.9125C49.1881 89.9559 47.9266 88.8854 46.4406 87.6444C42.2056 84.0729 36.9483 79.6381 32.5135 74.4275C30.7489 72.9196 28.3062 72.9167 26.7793 74.4392C24.9331 76.2898 25.5047 78.2717 26.4745 79.7329C28.9172 82.5359 31.3599 84.9144 33.9354 87.4081C35.0364 88.4844 36.1914 89.5971 37.3727 90.7856C38.2491 91.665 38.2491 93.0956 37.3727 93.9765C36.4977 94.8573 35.0627 94.8573 34.1731 93.9765C33.0195 92.8142 31.8777 91.7117 30.7883 90.6456C28.3324 88.2642 25.9831 85.9892 23.6191 83.3292C23.4602 83.2052 21.9202 81.3604 21.4433 80.7625C18.7483 77.4404 17.4329 73.8617 17.446 69.8221L17.5525 43.925C17.5787 36.6334 15.521 32.2511 12.0691 32.1942C12.0429 32.1942 12.0166 32.1942 12.0035 32.1942C9.65412 32.1942 7.22453 34.214 7.17057 36.2338L5.81724 83.914C5.71078 87.6167 7.02474 90.8571 9.71974 93.5463L31.2797 115.114ZM64.5079 122.956C63.4593 121.925 62.0783 121.361 60.6185 121.361C60.6054 121.361 60.5922 121.361 60.5791 121.361L58.4018 121.38L58.4281 102.414C58.4412 97.3744 57.8302 91.6665 53.2772 87.5598C52.1616 86.5565 50.7952 85.4073 49.3485 84.1925C45.22 80.7042 40.0545 76.3613 35.8604 71.3884C35.7933 71.3096 35.7145 71.2367 35.6474 71.1681C32.1168 67.9875 26.8202 68.0196 23.5929 71.2498C23.0897 71.7486 22.6639 72.2794 22.3052 72.8321C22.0806 71.8754 21.961 70.8838 21.961 69.8396L22.0674 43.9411C22.1199 29.0048 14.487 27.7215 12.1377 27.6821C12.0968 27.6821 12.0443 27.6821 12.0035 27.6821C7.21141 27.6821 2.77807 31.6648 2.65849 36.1069L1.3037 83.7827C1.17099 88.7075 2.97641 93.1875 6.52162 96.7371L27.4297 117.644V121.645L23.0897 121.682C21.6022 121.696 20.2212 122.287 19.1727 123.347C18.1372 124.405 17.567 125.802 17.5802 127.28L17.6458 134.498C17.6589 135.976 18.2437 137.363 19.3054 138.403C20.3554 139.436 21.7349 140 23.1962 140C23.2093 140 23.2225 140 23.2487 140L60.725 139.679C63.7918 139.65 66.2608 137.14 66.2345 134.081L66.1689 126.863C66.1543 125.386 65.571 123.998 64.5079 122.956ZM79.6556 129.72C80.1062 128.573 81.4216 128.008 82.5635 128.465C83.717 128.924 84.2756 130.228 83.8235 131.378C83.3597 132.529 82.0589 133.09 80.9039 132.634C79.762 132.176 79.1904 130.871 79.6556 129.72ZM84.9916 121.418L106.937 121.608V116.708C106.937 116.11 107.176 115.538 107.587 115.114L129.16 93.5477C131.855 90.8571 133.169 87.6167 133.063 83.914L131.708 36.2338C131.655 34.214 129.226 32.1942 126.876 32.1942C126.85 32.1942 126.837 32.1942 126.809 32.1942C123.344 32.2511 121.3 36.6348 121.327 43.925L121.419 69.8236C121.446 73.8617 120.132 77.4404 117.437 80.7625C116.945 81.3604 115.42 83.2067 115.246 83.3292C112.884 85.9892 110.547 88.2642 108.092 90.6456C106.989 91.7117 105.86 92.8142 104.692 93.9765C103.816 94.8588 102.382 94.8559 101.506 93.9765C100.618 93.0956 100.618 91.6665 101.506 90.7856C102.688 89.5986 103.843 88.4844 104.945 87.4081C107.52 84.9144 109.963 82.5373 112.405 79.7344C113.362 78.2717 113.945 76.2913 112.101 74.4392C110.574 72.9167 108.131 72.9196 106.365 74.429C101.932 79.6381 96.6612 84.0744 92.4262 87.6415C90.9533 88.8854 89.6787 89.9559 88.6156 90.914C85.3897 93.8248 84.9522 98.159 84.9522 102.407L84.9916 121.418ZM116.481 126.509C116.375 126.394 116.123 126.198 115.751 126.195L78.2614 125.875C77.8895 125.875 77.6372 126.063 77.5308 126.175C77.4112 126.289 77.226 126.534 77.2129 126.903L77.1589 134.117C77.1458 134.488 77.3456 134.737 77.452 134.854C77.5702 134.969 77.8093 135.164 78.1812 135.167L115.672 135.488C116.044 135.491 116.296 135.301 116.403 135.186C116.521 135.074 116.721 134.829 116.721 134.46L116.786 127.244C116.788 126.875 116.601 126.624 116.481 126.509ZM132.358 96.7371C135.904 93.1875 137.709 88.7075 137.576 83.7827L136.221 36.1069C136.09 31.6619 131.655 27.6821 126.876 27.6821C126.837 27.6821 126.783 27.6821 126.744 27.6821C124.393 27.7215 116.76 29.0048 116.814 43.9411L116.906 69.8396C116.919 70.8838 116.799 71.8754 116.575 72.8321C116.216 72.2794 115.792 71.7486 115.287 71.2498C112.061 68.0211 106.763 67.9875 103.232 71.1681C103.154 71.2367 103.087 71.3096 103.02 71.3884C98.8122 76.3613 93.6614 80.7042 89.5197 84.1925C88.0716 85.4073 86.7183 86.5565 85.6027 87.5598C81.0498 91.6665 80.4387 97.3744 80.4387 102.414L80.4781 121.38L78.3008 121.361C78.2877 121.361 78.2745 121.361 78.2483 121.361C76.7885 121.361 75.4075 121.928 74.372 122.956C73.3104 123.998 72.7125 125.386 72.6993 126.863L72.6454 134.081C72.6191 137.14 75.0881 139.65 78.1418 139.679L115.631 140.001C115.646 140.001 115.672 140.001 115.685 140.001C117.145 140.001 118.526 139.437 119.575 138.405C120.636 137.363 121.221 135.976 121.234 134.498L121.3 127.282C121.314 125.803 120.743 124.406 119.694 123.347C118.659 122.287 117.265 121.698 115.792 121.683L111.437 121.645V117.644L132.358 96.7371Z" fill="black"/>
<path d="M31.0664 65.1194L31.1189 65.0261C31.2472 65.0567 31.361 65.0276 31.4631 64.9386C31.5681 64.854 31.7037 64.6688 31.8714 64.3844L33.6856 61.2228C33.8518 60.9282 33.9452 60.7153 33.9656 60.5869C33.9845 60.4557 33.9495 60.3419 33.8606 60.2486L33.9131 60.1553L35.5756 61.1061C36.1195 61.4211 36.4637 61.7303 36.6081 62.0336C36.7554 62.3369 36.7452 62.6344 36.5789 62.9261C36.4418 63.1638 36.2304 63.3344 35.9431 63.4394C35.6587 63.5415 35.2912 63.5124 34.8406 63.3519C35.2168 63.594 35.4939 63.8463 35.6689 64.1103C35.8439 64.3757 35.9343 64.6396 35.9431 64.9036C35.9504 65.1632 35.8862 65.4111 35.7506 65.6444C35.6456 65.8428 35.4954 66.0149 35.3014 66.1636C35.1104 66.3109 34.8785 66.4101 34.6072 66.4611C34.3389 66.5107 34.0297 66.499 33.6797 66.4261C33.3327 66.3517 32.9462 66.1928 32.5189 65.9478L31.0664 65.1194ZM32.3497 64.8919C32.201 65.1486 32.1281 65.3294 32.1281 65.4344C32.131 65.5394 32.2068 65.6342 32.3556 65.7203L32.6356 65.8778C33.0235 66.0994 33.3662 66.2176 33.6622 66.2336C33.9612 66.2526 34.2237 66.1899 34.4497 66.0469C34.6743 65.9069 34.861 65.7057 35.0097 65.4461C35.1687 65.169 35.2562 64.8978 35.2722 64.6294C35.2868 64.3611 35.2168 64.1015 35.0622 63.8478C34.9106 63.5955 34.6568 63.368 34.3039 63.1653L33.5806 62.7511L32.3497 64.8919ZM33.6389 62.6461L34.2981 63.0253C34.6481 63.2236 34.9572 63.2819 35.2256 63.2003C35.4968 63.1157 35.7097 62.9421 35.8614 62.6811C36.0277 62.3894 36.0597 62.1007 35.9547 61.8119C35.8527 61.5203 35.6222 61.2724 35.2606 61.0653L34.7239 60.7561L33.6389 62.6461Z" fill="black"/>
<path d="M37.1243 68.6843C36.8939 68.5516 36.6897 68.3868 36.5118 68.1885C36.3324 67.9931 36.1939 67.7714 36.0977 67.5235C36.0043 67.2756 35.9664 67.0073 35.9868 66.7185C36.0102 66.4268 36.1108 66.1279 36.2902 65.8202C36.5002 65.4556 36.7743 65.1829 37.1127 65.0035C37.451 64.8212 37.8068 64.7323 38.1802 64.7352C38.5535 64.7352 38.9035 64.8285 39.2302 65.0152C39.4518 65.1435 39.6502 65.3054 39.8252 65.4993C40.0031 65.6948 40.1402 65.9164 40.2335 66.1643C40.3297 66.4137 40.3677 66.6835 40.3443 66.9752C40.3239 67.2639 40.2247 67.5643 40.0468 67.8793C39.8718 68.1827 39.6618 68.4175 39.4168 68.5852C39.1747 68.7514 38.9152 68.8623 38.6352 68.9177C38.3581 68.9716 38.0883 68.976 37.8243 68.9293C37.5589 68.8827 37.3256 68.801 37.1243 68.6843ZM37.0718 65.7327C36.9391 65.9631 36.8399 66.2168 36.7743 66.4968C36.7072 66.7739 36.6824 67.051 36.6985 67.331C36.7131 67.611 36.7772 67.8677 36.891 68.101C37.0033 68.3373 37.1783 68.5239 37.416 68.661C37.6727 68.8083 37.9147 68.8666 38.1452 68.836C38.3741 68.8083 38.5841 68.7164 38.7752 68.5618C38.9691 68.4058 39.131 68.2148 39.2593 67.9902C39.3906 67.7641 39.4897 67.506 39.5568 67.2143C39.6224 66.9227 39.6472 66.631 39.6327 66.3393C39.6166 66.0448 39.5466 65.7779 39.4227 65.5402C39.3016 65.2996 39.1208 65.1202 38.8802 65.0035C38.6352 64.8723 38.3989 64.8256 38.1743 64.8635C37.9483 64.8985 37.7397 64.9948 37.5502 65.1493C37.3635 65.301 37.2031 65.4964 37.0718 65.7327Z" fill="black"/>
<path d="M39.5469 69.9803L39.5994 69.887C39.7277 69.9176 39.8415 69.8899 39.9435 69.8053C40.0485 69.7164 40.1842 69.5297 40.3519 69.2453L41.2852 67.6061C41.3815 67.4428 41.4427 67.3145 41.466 67.2211C41.4894 67.1249 41.4908 67.0461 41.4719 66.9878C41.4558 66.9266 41.4223 66.8624 41.3727 66.7953L41.4194 66.7195L42.3877 66.8245L42.4169 66.912L41.9094 67.7986C42.0494 67.6907 42.1981 67.6047 42.3585 67.542C42.5219 67.4764 42.6735 67.437 42.8135 67.4253C42.9681 67.4064 43.1242 67.4107 43.2802 67.437C43.4392 67.4647 43.6025 67.5274 43.7702 67.6236C43.9175 67.7053 44.0225 67.7899 44.0852 67.8745C44.1465 67.9561 44.161 68.0261 44.126 68.0845C44.0823 68.1589 43.9948 68.2245 43.8635 68.2828C43.7352 68.3382 43.6069 68.328 43.4785 68.2536C43.3852 68.1997 43.2758 68.1136 43.1519 67.997C43.0308 67.8774 42.8835 67.7272 42.7085 67.5478C42.6152 67.5566 42.5044 67.5872 42.376 67.6411C42.2477 67.6922 42.1223 67.7636 42.0027 67.857C41.886 67.9474 41.7898 68.048 41.7169 68.1603L41.7052 68.1545L40.9002 69.5661C40.7325 69.8505 40.6377 70.0576 40.6144 70.1903C40.594 70.3216 40.629 70.4353 40.7194 70.5286L40.6669 70.622L39.5469 69.9803Z" fill="black"/>
<path d="M42.5264 71.6903L42.5789 71.5969C42.7072 71.6276 42.821 71.5999 42.923 71.5153C43.028 71.4263 43.1637 71.2397 43.3314 70.9553L44.2647 69.3161C44.361 69.1528 44.4222 69.0244 44.4455 68.9311C44.4689 68.8349 44.4703 68.7561 44.4514 68.6978C44.4353 68.6365 44.4018 68.5724 44.3522 68.5053L44.3989 68.4294L45.3672 68.5344L45.3964 68.6219L44.8889 69.5086C45.0289 69.4007 45.1776 69.3147 45.338 69.2519C45.5014 69.1863 45.653 69.1469 45.793 69.1353C45.9476 69.1163 46.1037 69.1207 46.2597 69.1469C46.4187 69.1747 46.582 69.2374 46.7497 69.3336C46.897 69.4153 47.002 69.4999 47.0647 69.5844C47.126 69.6661 47.1405 69.7361 47.1055 69.7944C47.0618 69.8688 46.9743 69.9344 46.843 69.9928C46.7147 70.0482 46.5864 70.038 46.458 69.9636C46.3647 69.9097 46.2553 69.8236 46.1314 69.7069C46.0103 69.5874 45.863 69.4372 45.688 69.2578C45.5947 69.2665 45.4839 69.2972 45.3555 69.3511C45.2272 69.4022 45.1018 69.4736 44.9822 69.5669C44.8655 69.6574 44.7693 69.758 44.6964 69.8703L44.6847 69.8644L43.8797 71.2761C43.712 71.5605 43.6172 71.7676 43.5939 71.9003C43.5735 72.0315 43.6085 72.1453 43.6989 72.2386L43.6464 72.3319L42.5264 71.6903Z" fill="black"/>
<path d="M47.0081 74.3557C46.7777 74.223 46.5735 74.0582 46.3956 73.8599C46.2162 73.6645 46.0777 73.4428 45.9814 73.1949C45.8881 72.947 45.8502 72.6786 45.8706 72.3899C45.8939 72.0982 45.9946 71.7993 46.1739 71.4916C46.3839 71.127 46.6581 70.8543 46.9964 70.6749C47.3348 70.4926 47.6906 70.4036 48.0639 70.4066C48.4373 70.4066 48.7873 70.4999 49.1139 70.6866C49.3356 70.8149 49.5339 70.9768 49.7089 71.1707C49.8869 71.3661 50.0239 71.5878 50.1173 71.8357C50.2135 72.0851 50.2514 72.3549 50.2281 72.6466C50.2077 72.9353 50.1085 73.2357 49.9306 73.5507C49.7556 73.8541 49.5456 74.0889 49.3006 74.2566C49.0585 74.4228 48.7989 74.5336 48.5189 74.5891C48.2419 74.643 47.9721 74.6474 47.7081 74.6007C47.4427 74.5541 47.2094 74.4724 47.0081 74.3557ZM46.9556 71.4041C46.8229 71.6345 46.7237 71.8882 46.6581 72.1682C46.591 72.4453 46.5662 72.7224 46.5823 73.0024C46.5969 73.2824 46.661 73.5391 46.7748 73.7724C46.8871 74.0086 47.0621 74.1953 47.2998 74.3324C47.5564 74.4797 47.7985 74.538 48.0289 74.5074C48.2579 74.4797 48.4679 74.3878 48.6589 74.2332C48.8529 74.0772 49.0148 73.8861 49.1431 73.6616C49.2744 73.4355 49.3735 73.1774 49.4406 72.8857C49.5062 72.5941 49.531 72.3024 49.5164 72.0107C49.5004 71.7161 49.4304 71.4493 49.3064 71.2116C49.1854 70.9709 49.0046 70.7916 48.7639 70.6749C48.5189 70.5436 48.2827 70.497 48.0581 70.5349C47.8321 70.5699 47.6235 70.6661 47.4339 70.8207C47.2473 70.9724 47.0869 71.1678 46.9556 71.4041Z" fill="black"/>
<path d="M50.94 72.9522C51.0216 72.6255 51.0625 72.3965 51.0625 72.2638C51.0625 72.1282 51.0348 72.0247 50.9808 71.9547L51.0333 71.8613L52.0541 72.4447L52.0016 72.538C51.8733 72.5074 51.78 72.5438 51.7216 72.6488C51.6662 72.7509 51.6006 72.9638 51.5233 73.2905L50.9166 75.7405L53.6408 73.3547L53.9091 73.5122L53.2383 77.0647L55.0525 75.3147C55.4608 74.9267 55.5556 74.638 55.3383 74.4513L55.3908 74.358L56.1141 74.7722L56.0616 74.8655C55.9406 74.8392 55.8196 74.8582 55.7 74.9238C55.5833 74.9909 55.4039 75.1397 55.1633 75.373L52.8416 77.613L52.5208 77.4263L53.1975 73.8972L50.4966 76.2655L50.1816 76.0847L50.94 72.9522Z" fill="black"/>
<path d="M54.4043 78.5098L54.4568 78.4165C54.5851 78.4471 54.6989 78.4179 54.801 78.329C54.906 78.2444 55.0416 78.0592 55.2093 77.7748L57.0235 74.6132C57.1897 74.3186 57.283 74.1057 57.3035 73.9773C57.3224 73.8461 57.2874 73.7323 57.1985 73.639L57.251 73.5457L58.9135 74.4965C59.4574 74.8115 59.8016 75.1207 59.946 75.424C60.0933 75.7273 60.083 76.0248 59.9168 76.3165C59.7797 76.5542 59.5683 76.7248 59.281 76.8298C58.9966 76.9319 58.6291 76.9027 58.1785 76.7423C58.5547 76.9844 58.8318 77.2367 59.0068 77.5007C59.1818 77.7661 59.2722 78.03 59.281 78.294C59.2883 78.5536 59.2241 78.8015 59.0885 79.0348C58.9835 79.2332 58.8333 79.4052 58.6393 79.554C58.4483 79.7013 58.2164 79.8004 57.9451 79.8515C57.6768 79.9011 57.3676 79.8894 57.0176 79.8165C56.6705 79.7421 56.2841 79.5832 55.8568 79.3382L54.4043 78.5098ZM55.6876 78.2823C55.5389 78.539 55.466 78.7198 55.466 78.8248C55.4689 78.9298 55.5447 79.0246 55.6935 79.1107L55.9735 79.2682C56.3614 79.4898 56.7041 79.6079 57.0001 79.624C57.2991 79.6429 57.5616 79.5802 57.7876 79.4373C58.0122 79.2973 58.1989 79.0961 58.3476 78.8365C58.5066 78.5594 58.5941 78.2882 58.6101 78.0198C58.6247 77.7515 58.5547 77.4919 58.4001 77.2382C58.2485 76.9859 57.9947 76.7584 57.6418 76.5557L56.9185 76.1415L55.6876 78.2823ZM56.9768 76.0365L57.636 76.4157C57.986 76.614 58.2951 76.6723 58.5635 76.5907C58.8347 76.5061 59.0476 76.3325 59.1993 76.0715C59.3655 75.7798 59.3976 75.4911 59.2926 75.2023C59.1905 74.9107 58.9601 74.6627 58.5985 74.4557L58.0618 74.1465L56.9768 76.0365Z" fill="black"/>
<path d="M60.4612 82.075C60.2308 81.9423 60.0267 81.7775 59.8487 81.5791C59.6694 81.3837 59.5308 81.1621 59.4346 80.9141C59.3412 80.6662 59.3033 80.3979 59.3237 80.1091C59.3471 79.8175 59.4477 79.5185 59.6271 79.2108C59.8371 78.8462 60.1112 78.5735 60.4496 78.3941C60.7879 78.2118 61.1437 78.1229 61.5171 78.1258C61.8904 78.1258 62.2404 78.2191 62.5671 78.4058C62.7887 78.5341 62.9871 78.696 63.1621 78.89C63.34 79.0854 63.4771 79.3071 63.5704 79.555C63.6667 79.8043 63.7046 80.0741 63.6812 80.3658C63.6608 80.6546 63.5617 80.955 63.3837 81.27C63.2087 81.5733 62.9987 81.8081 62.7537 81.9758C62.5117 82.1421 62.2521 82.2529 61.9721 82.3083C61.695 82.3623 61.4252 82.3666 61.1612 82.32C60.8958 82.2733 60.6625 82.1916 60.4612 82.075ZM60.4087 79.1233C60.276 79.3537 60.1769 79.6075 60.1112 79.8875C60.0442 80.1646 60.0194 80.4416 60.0354 80.7216C60.05 81.0016 60.1142 81.2583 60.2279 81.4916C60.3402 81.7279 60.5152 81.9146 60.7529 82.0516C61.0096 82.1989 61.2517 82.2573 61.4821 82.2266C61.711 82.1989 61.921 82.1071 62.1121 81.9525C62.306 81.7964 62.4679 81.6054 62.5962 81.3808C62.7275 81.1548 62.8267 80.8966 62.8937 80.605C62.9594 80.3133 62.9842 80.0216 62.9696 79.73C62.9535 79.4354 62.8835 79.1685 62.7596 78.9308C62.6385 78.6902 62.4577 78.5108 62.2171 78.3941C61.9721 78.2629 61.7358 78.2162 61.5112 78.2541C61.2852 78.2891 61.0767 78.3854 60.8871 78.54C60.7004 78.6916 60.54 78.8871 60.4087 79.1233Z" fill="black"/>
<path d="M64.8678 84.5082L64.9203 84.4149C65.0515 84.4499 65.1186 84.4105 65.1186 84.2982C65.1186 84.1888 65.1084 83.9686 65.0894 83.6391L65.0078 82.4549L63.8586 82.9741C63.6603 83.0601 63.5115 83.1316 63.4153 83.1899C63.3219 83.2438 63.2869 83.3036 63.3103 83.3707C63.3365 83.4363 63.4211 83.5253 63.5611 83.6391L63.5086 83.7324L62.5928 83.2074L62.6453 83.1141C62.7576 83.1345 62.8903 83.1374 63.0419 83.1257C63.1965 83.1111 63.4269 83.0353 63.7303 82.8982L65.0078 82.3324L64.9144 80.8216C64.8911 80.4876 64.8517 80.2499 64.7978 80.1099C64.7467 79.9699 64.684 79.8576 64.6111 79.7716L64.6636 79.6782L65.7661 80.3141L65.7136 80.4074C65.5809 80.3724 65.5153 80.4118 65.5153 80.5241C65.5153 80.6334 65.524 80.8536 65.5444 81.1832L65.6086 82.1982L66.5653 81.7549C66.7709 81.6586 66.9182 81.5799 67.0086 81.5216C67.0976 81.4603 67.1311 81.3961 67.1078 81.3291C67.0874 81.2591 67.0057 81.1701 66.8628 81.0607L66.9153 80.9674L67.8194 81.4924L67.7669 81.5857C67.6532 81.5624 67.519 81.5609 67.3644 81.5799C67.2128 81.6003 66.9867 81.682 66.6878 81.8249L65.6144 82.3266L65.7136 83.9949C65.7326 84.3288 65.769 84.5666 65.8244 84.7066C65.8828 84.8495 65.944 84.9632 66.0111 85.0449L65.9586 85.1382L64.8678 84.5082Z" fill="black"/>
<path d="M73.4347 84.8652L73.3763 84.766C73.4726 84.6581 73.5076 84.5312 73.4813 84.3868C73.4536 84.2396 73.3472 84.0062 73.1605 83.6868L71.533 80.9218L71.078 81.1843L71.0488 81.0502L71.463 80.811C71.3084 80.5077 71.218 80.1839 71.1947 79.8368C71.1713 79.4912 71.2063 79.1471 71.2997 78.8043C71.393 78.4587 71.5476 78.1423 71.7605 77.8535C71.9749 77.5618 72.2417 77.3227 72.5597 77.136C72.9184 76.9231 73.1372 76.8837 73.2188 77.0193C73.2451 77.066 73.2567 77.1389 73.2538 77.2352C73.2538 77.3285 73.232 77.4277 73.1897 77.5327C73.1503 77.6348 73.0774 77.7179 72.968 77.7835C72.7901 77.8885 72.5947 77.9687 72.3847 78.0227C72.1747 78.0781 71.9355 78.1335 71.6672 78.1918C71.6088 78.2896 71.5534 78.4135 71.498 78.5652C71.444 78.7168 71.4324 78.9093 71.463 79.1427C71.4951 79.3731 71.6074 79.6502 71.8013 79.9768L72.0755 80.4493L73.108 79.8427L73.1255 79.9827L72.1455 80.5602L73.773 83.3252C73.9597 83.6446 74.1084 83.8502 74.2222 83.9435C74.3388 84.0368 74.4686 84.0689 74.613 84.0368L74.6713 84.136L73.4347 84.8652Z" fill="black"/>
<path d="M77.6226 82.5084C77.3688 82.6572 77.0976 82.7636 76.8059 82.8292C76.5172 82.8919 76.2255 82.9022 75.9309 82.8584C75.6392 82.8117 75.3607 82.698 75.0967 82.5142C74.8284 82.3319 74.5936 82.0709 74.3909 81.7326C74.1547 81.3242 74.0409 80.9086 74.0526 80.4842C74.0642 80.0569 74.1751 79.6617 74.3851 79.3001C74.5922 78.9384 74.8736 78.6526 75.2309 78.4426C75.4788 78.2996 75.7457 78.1946 76.0301 78.1276C76.3174 78.0619 76.6076 78.0517 76.8992 78.0984C77.1909 78.1451 77.4709 78.2588 77.7392 78.4367C78.0076 78.6161 78.2467 78.883 78.4567 79.2359C78.6507 79.5713 78.7615 79.9038 78.7892 80.2334C78.8199 80.5601 78.7849 80.8722 78.6842 81.1667C78.5822 81.4628 78.4363 81.7267 78.2467 81.9601C78.0601 82.1905 77.8515 82.3728 77.6226 82.5084ZM74.7409 80.9217C74.8897 81.1711 75.0778 81.4059 75.3067 81.6276C75.5401 81.8492 75.7967 82.0286 76.0767 82.1642C76.3567 82.3013 76.6397 82.3801 76.9284 82.4034C77.2201 82.4238 77.4957 82.3553 77.7567 82.1992C78.044 82.033 78.2365 81.8303 78.3342 81.5926C78.4349 81.3519 78.4626 81.0996 78.4159 80.8342C78.3722 80.5659 78.2774 80.3063 78.1301 80.0526C77.9813 79.8003 77.7859 79.5611 77.5409 79.3351C77.2959 79.1105 77.0247 78.9253 76.7301 78.7809C76.4384 78.6336 76.1424 78.5534 75.8434 78.5417C75.5474 78.5271 75.279 78.6001 75.0384 78.7634C74.7744 78.9355 74.5951 79.1396 74.5017 79.3759C74.4084 79.6136 74.388 79.8659 74.4376 80.1342C74.4886 80.3996 74.5892 80.6622 74.7409 80.9217Z" fill="black"/>
<path d="M81.7238 80.0948C81.3067 80.3398 80.9275 80.3952 80.5863 80.2581C80.2479 80.1181 79.9475 79.8206 79.6821 79.3656L78.8246 77.9131C78.7196 77.7352 78.6292 77.6069 78.5504 77.5281C78.4688 77.4509 78.3958 77.4042 78.3288 77.3881C78.2588 77.3736 78.1771 77.3706 78.0838 77.3823L78.0312 77.289L78.6671 76.4198L78.7663 76.4256L80.2013 78.8698C80.4652 79.3175 80.7277 79.6048 80.9888 79.7331C81.2483 79.8586 81.5342 79.8294 81.8463 79.6456C82.0752 79.51 82.256 79.3175 82.3888 79.0681C82.5244 78.8159 82.6279 78.5431 82.6979 78.2515L81.5546 76.309C81.4496 76.1311 81.3577 76.0027 81.2804 75.924C81.2017 75.8423 81.1288 75.7956 81.0588 75.784C80.9888 75.7694 80.9071 75.765 80.8138 75.7723L80.7613 75.679L81.4029 74.8098L81.5021 74.8156L83.2346 77.7556C83.4213 78.075 83.57 78.2836 83.6838 78.3798C83.796 78.4731 83.9244 78.5052 84.0688 78.4731L84.1271 78.5723L83.4679 78.9573C83.3819 79.0084 83.3017 79.0244 83.2288 79.004C83.1588 78.985 83.0902 78.9194 83.0246 78.8056L82.7854 78.4031C82.7067 78.7269 82.5827 79.0477 82.4121 79.3656C82.2444 79.6806 82.0154 79.9242 81.7238 80.0948Z" fill="black"/>
<path d="M84.6565 78.2618L84.5982 78.1627C84.6944 78.0504 84.7294 77.9221 84.7032 77.7777C84.6798 77.6304 84.5748 77.3971 84.3882 77.0777L83.3207 75.2693C83.2157 75.0914 83.1253 74.9631 83.0465 74.8843C82.9648 74.8027 82.8919 74.7546 82.8248 74.7385C82.7548 74.7239 82.6732 74.7239 82.5798 74.7385L82.5273 74.6452L83.169 73.7702L83.2682 73.776L83.8457 74.7618C83.8194 74.5723 83.8194 74.3812 83.8457 74.1902C83.869 74.0006 83.9142 73.8285 83.9798 73.6768C84.0498 73.5179 84.1417 73.3721 84.254 73.2393C84.3678 73.1037 84.5165 72.9798 84.7032 72.866C84.8621 72.7727 84.9978 72.7187 85.1115 72.7027C85.2238 72.6837 85.3011 72.7085 85.3448 72.7785C85.3915 72.8602 85.4061 72.9798 85.3915 73.1343C85.3755 73.2904 85.2953 73.4114 85.1523 73.496C85.0473 73.5543 84.903 73.6127 84.7207 73.671C84.5369 73.7293 84.3123 73.7921 84.044 73.8577C84.0017 73.951 83.9711 74.0764 83.9507 74.231C83.9317 74.3827 83.9332 74.5431 83.9565 74.7093C83.9798 74.8727 84.0236 75.0185 84.0848 75.1468L84.079 75.1527L85.0007 76.716C85.1873 77.0354 85.3361 77.2439 85.4498 77.3402C85.5665 77.4335 85.6963 77.4627 85.8407 77.4277L85.899 77.5268L84.6565 78.2618Z" fill="black"/>
<path d="M90.8792 74.7041C90.6342 74.8485 90.3892 74.8777 90.1442 74.7916C89.9021 74.707 89.663 74.4591 89.4267 74.0508L87.7934 71.2799L87.2917 71.5716L87.2275 71.4608L87.665 69.9033L87.7759 69.8391L88.3417 70.8074L89.5375 70.1016L89.5609 70.2358L88.4059 70.9183L90.0392 73.6891C90.1938 73.9574 90.3557 74.1179 90.5234 74.1674C90.694 74.2185 90.8632 74.1937 91.0309 74.0916C91.1388 74.0304 91.2423 73.9312 91.34 73.7941C91.4363 73.6541 91.5048 73.4718 91.5442 73.2458L91.655 73.2749C91.5996 73.571 91.515 73.8495 91.3984 74.1091C91.2846 74.3702 91.1125 74.5685 90.8792 74.7041Z" fill="black"/>
<path d="M94.1051 72.8084C93.8908 72.9338 93.6501 73.0213 93.3818 73.0709C93.1164 73.122 92.8466 73.122 92.571 73.0709C92.2939 73.017 92.0299 72.9017 91.7776 72.7267C91.5253 72.5517 91.3037 72.3038 91.1126 71.9801C90.8603 71.5484 90.7364 71.1167 90.7393 70.6851C90.7437 70.2534 90.8501 69.8553 91.0601 69.4892C91.2701 69.1247 91.556 68.8345 91.9176 68.6201C92.2472 68.4261 92.5666 68.327 92.8743 68.3226C93.1849 68.3153 93.4664 68.3795 93.7201 68.5151C93.9724 68.6478 94.1766 68.8359 94.3326 69.0809L91.2585 70.8892C91.3095 71.0103 91.3722 71.1328 91.4451 71.2567C91.6551 71.6184 91.9103 71.897 92.2093 72.0909C92.5083 72.282 92.8291 72.3797 93.1718 72.3826C93.5174 72.3826 93.8601 72.282 94.1985 72.0792C94.5047 71.9013 94.7322 71.6826 94.881 71.4259C95.0326 71.1692 95.1376 70.8863 95.196 70.5742L95.3068 70.6034C95.2864 70.8688 95.2368 71.1401 95.1551 71.4201C95.0735 71.6972 94.9481 71.9553 94.7818 72.1959C94.6141 72.438 94.3881 72.6422 94.1051 72.8084ZM91.2235 70.7667L93.6385 69.3434C93.5058 69.1801 93.3366 69.043 93.131 68.9292C92.9283 68.8126 92.7066 68.747 92.466 68.7309C92.2283 68.7163 91.9891 68.7805 91.7485 68.9234C91.4101 69.1145 91.2045 69.3784 91.1301 69.7167C91.0572 70.0551 91.0878 70.4051 91.2235 70.7667Z" fill="black"/>
<path d="M99.344 69.6156C99.188 69.7089 99.064 69.6768 98.9707 69.5164L98.1423 68.1048C98.2473 68.4708 98.2911 68.8339 98.2765 69.1956C98.2648 69.5573 98.1919 69.8825 98.0607 70.1698C97.928 70.4541 97.7311 70.6743 97.4715 70.8289C97.2805 70.9383 97.0777 71.0025 96.8648 71.0214C96.6505 71.0418 96.4463 71.0068 96.2523 70.9164C96.0613 70.8231 95.9009 70.6641 95.7682 70.4381C95.6092 70.1668 95.5611 69.8985 95.6223 69.6331C95.685 69.3648 95.8177 69.0964 96.019 68.8281C96.2202 68.5598 96.4536 68.2914 96.719 68.0231L97.5765 67.1481C97.3271 66.7748 97.0544 66.556 96.7598 66.4889C96.4682 66.4189 96.1546 66.4831 95.8207 66.6814C95.5873 66.8185 95.3934 67.0081 95.2373 67.2531C95.0784 67.4981 94.969 67.8 94.9107 68.1573L94.8057 68.1339C94.864 67.7227 94.9909 67.3523 95.1848 67.0256C95.3759 66.696 95.6398 66.4306 95.9782 66.2323C96.4565 65.9523 96.8794 65.8706 97.2498 65.9873C97.6188 66.1039 97.9352 66.3868 98.2007 66.8331L99.1282 68.4023C99.3148 68.7216 99.4636 68.9302 99.5773 69.0264C99.694 69.1198 99.8238 69.1489 99.9682 69.1139L100.026 69.2131L99.344 69.6156ZM96.229 69.8723C96.3807 70.1333 96.5732 70.285 96.8065 70.3273C97.0398 70.3666 97.2673 70.32 97.489 70.1873C97.7019 70.0633 97.858 69.8927 97.9557 69.6739C98.0563 69.4566 98.1132 69.2189 98.1248 68.9623C98.1365 68.7027 98.1102 68.4431 98.049 68.1864C97.9863 67.9268 97.8944 67.6935 97.7748 67.4864L97.6465 67.2648L97.6348 67.2531L96.8007 68.0989C96.6373 68.2623 96.4871 68.4431 96.3515 68.6414C96.2188 68.8368 96.1327 69.0366 96.0948 69.2423C96.0555 69.4493 96.1007 69.6593 96.229 69.8723Z" fill="black"/>
<path d="M100.465 68.9581L100.407 68.8589C100.503 68.7466 100.538 68.6183 100.512 68.4739C100.488 68.3266 100.383 68.0933 100.197 67.7739L99.1293 65.9656C99.0243 65.7876 98.9339 65.6593 98.8551 65.5806C98.7734 65.4989 98.7005 65.4508 98.6334 65.4347C98.5634 65.4201 98.4818 65.4201 98.3884 65.4347L98.3359 65.3414L98.9776 64.4664L99.0768 64.4722L99.4676 65.1431C99.5959 64.8164 99.7593 64.4985 99.9576 64.1864C100.153 63.8758 100.391 63.6366 100.675 63.4689C101.266 63.1233 101.775 63.1568 102.203 63.5681C102.323 63.2414 102.483 62.9176 102.682 62.5939C102.883 62.2716 103.132 62.0222 103.428 61.8472C103.809 61.6226 104.159 61.5599 104.478 61.6606C104.801 61.7583 105.092 62.0281 105.353 62.4714L106.345 64.1514C106.532 64.4708 106.683 64.6764 106.8 64.7697C106.92 64.8631 107.048 64.8966 107.185 64.8689L107.243 64.9681L106.001 65.6972L105.943 65.5981C106.039 65.4901 106.074 65.3618 106.048 65.2131C106.024 65.0658 105.919 64.8324 105.733 64.5131L104.823 62.9731C104.359 62.1841 103.831 61.9668 103.236 62.3197C103.006 62.4524 102.819 62.6347 102.676 62.8681C102.532 63.0985 102.399 63.361 102.279 63.6556C102.392 63.7693 102.501 63.9151 102.606 64.0931L103.598 65.7731C103.784 66.0924 103.933 66.301 104.047 66.3972C104.159 66.4906 104.287 66.5197 104.432 66.4847L104.49 66.5839L103.253 67.3189L103.195 67.2197C103.291 67.1074 103.326 66.9791 103.3 66.8347C103.277 66.6874 103.172 66.4541 102.985 66.1347L102.075 64.5947C101.611 63.8058 101.081 63.5856 100.483 63.9356C100.261 64.0683 100.079 64.2491 99.9343 64.4781C99.787 64.7085 99.6528 64.9666 99.5318 65.2539L100.809 67.4122C100.996 67.7316 101.145 67.9401 101.258 68.0364C101.375 68.1297 101.505 68.1589 101.649 68.1239L101.708 68.2231L100.465 68.9581Z" fill="black"/>
</g>
<defs>
<clipPath id="clip0_187_390">
<rect width="140" height="140" fill="white"/>
</clipPath>
</defs>
</svg>
